<?xml version="1.0" encoding="UTF-8"?>
<svg version="1.1" xmlns="http://www.w3.org/2000/svg" width="500" height="500">
<path d="M0 0 C1.26119156 -0.0066568 2.52238312 -0.0133136 3.8217926 -0.02017212 C6.47663628 -0.03023397 9.13106961 -0.03586457 11.78588867 -0.03466797 C15.77488625 -0.03442656 19.76313641 -0.07534648 23.75195312 -0.11328125 C39.09583279 -0.18063444 53.42293347 0.91641368 68.37890625 4.3359375 C70.24396927 4.7403947 72.1093713 5.14329157 73.97509766 5.54467773 C102.32801217 11.65872554 130.85582914 23.20691377 154.37890625 40.3359375 C156.35686289 41.37886009 158.35009806 42.39575809 160.37890625 43.3359375 C160.37890625 43.9959375 160.37890625 44.6559375 160.37890625 45.3359375 C161.69890625 45.6659375 163.01890625 45.9959375 164.37890625 46.3359375 C164.37890625 46.9959375 164.37890625 47.6559375 164.37890625 48.3359375 C166.02890625 48.9959375 167.67890625 49.6559375 169.37890625 50.3359375 C169.37890625 50.9959375 169.37890625 51.6559375 169.37890625 52.3359375 C170.07371094 52.54863281 170.76851563 52.76132812 171.484375 52.98046875 C175.17488202 54.70868189 177.79606878 57.22616034 180.69140625 60.0234375 C181.85198857 61.12332093 183.01344263 62.22228527 184.17578125 63.3203125 C184.73072266 63.84689453 185.28566406 64.37347656 185.85742188 64.91601562 C187.66482626 66.60277171 189.54113372 68.19253851 191.44140625 69.7734375 C199.70304824 76.95898327 206.84239504 85.46159898 213.62890625 94.0234375 C214.10690674 94.62357666 214.58490723 95.22371582 215.07739258 95.84204102 C218.37890625 100.08597008 218.37890625 100.08597008 218.37890625 102.3359375 C219.03890625 102.3359375 219.69890625 102.3359375 220.37890625 102.3359375 C221.66796875 103.76171875 221.66796875 103.76171875 223.00390625 105.6484375 C223.44992187 106.26332031 223.8959375 106.87820312 224.35546875 107.51171875 C225.37890625 109.3359375 225.37890625 109.3359375 225.37890625 112.3359375 C226.03890625 112.3359375 226.69890625 112.3359375 227.37890625 112.3359375 C233.19957773 122.58948147 238.90730914 132.89135405 244.37890625 143.3359375 C244.78238281 144.05265625 245.18585938 144.769375 245.6015625 145.5078125 C246.37890625 147.3359375 246.37890625 147.3359375 246.37890625 151.3359375 C247.03890625 151.3359375 247.69890625 151.3359375 248.37890625 151.3359375 C248.77722656 152.5425 249.17554688 153.7490625 249.5859375 154.9921875 C250.1210119 156.60679796 250.65617277 158.22137977 251.19140625 159.8359375 C251.45244141 160.62742188 251.71347656 161.41890625 251.98242188 162.234375 C253.19037362 165.87314323 254.42547914 169.45187689 255.85546875 173.01171875 C257.9503591 178.5316758 259.16842157 184.29828476 260.48608398 190.04272461 C260.93685963 192.0036591 261.39844039 193.96181569 261.86132812 195.91992188 C264.80546777 208.61371785 266.69005533 220.85546091 266.71484375 233.921875 C266.72150055 235.18069489 266.72815735 236.43951477 266.73501587 237.73648071 C266.74507833 240.38712843 266.75070829 243.0373652 266.74951172 245.68798828 C266.74927057 249.6660011 266.79017518 253.64326233 266.828125 257.62109375 C266.89818751 273.28476504 265.81967877 288.04587506 262.37890625 303.3359375 C262.22218445 304.04709717 262.06546265 304.75825684 261.9039917 305.4909668 C260.9921358 309.57114405 259.96436561 313.61142085 258.87890625 317.6484375 C258.59660156 318.74865234 258.31429688 319.84886719 258.0234375 320.98242188 C256.26351239 327.66774825 254.05054598 333.96704204 251.37890625 340.3359375 C250.62538801 342.37630831 249.87490057 344.41780381 249.12890625 346.4609375 C246.10048175 354.36849035 242.29700292 361.84081895 238.37890625 369.3359375 C237.95867187 370.14546875 237.5384375 370.955 237.10546875 371.7890625 C226.78904361 390.95859006 226.78904361 390.95859006 220.37890625 398.3359375 C219.71890625 398.3359375 219.05890625 398.3359375 218.37890625 398.3359375 C218.17007812 399.0165625 217.96125 399.6971875 217.74609375 400.3984375 C215.92662633 404.30769321 213.36187885 407.13839971 210.50390625 410.3359375 C209.92527832 410.99166748 209.34665039 411.64739746 208.75048828 412.32299805 C206.9683037 414.33493063 205.17502236 416.33644058 203.37890625 418.3359375 C202.84845703 418.93100098 202.31800781 419.52606445 201.77148438 420.13916016 C192.84472431 430.13201417 183.31033622 439.11257661 172.81640625 447.4609375 C171.9039917 448.19014404 171.9039917 448.19014404 170.97314453 448.93408203 C166.6218767 452.3359375 166.6218767 452.3359375 164.37890625 452.3359375 C164.37890625 452.9959375 164.37890625 453.6559375 164.37890625 454.3359375 C163.05890625 454.6659375 161.73890625 454.9959375 160.37890625 455.3359375 C160.37890625 455.9959375 160.37890625 456.6559375 160.37890625 457.3359375 C154.3949179 462.24133042 147.18885015 465.73838591 140.37890625 469.3359375 C138.93215516 470.10521208 137.48555079 470.87476263 136.0390625 471.64453125 C133.06133472 473.22668631 130.08276811 474.80721919 127.1015625 476.3828125 C126.48031494 476.71120117 125.85906738 477.03958984 125.21899414 477.37792969 C124.61176514 477.69407227 124.00453613 478.01021484 123.37890625 478.3359375 C122.72462646 478.7062207 122.07034668 479.07650391 121.39624023 479.45800781 C119.37890625 480.3359375 119.37890625 480.3359375 115.37890625 480.3359375 C115.37890625 480.9959375 115.37890625 481.6559375 115.37890625 482.3359375 C114.17234375 482.73425781 112.96578125 483.13257813 111.72265625 483.54296875 C110.10804579 484.07804315 108.49346398 484.61320402 106.87890625 485.1484375 C105.69167969 485.53999023 105.69167969 485.53999023 104.48046875 485.93945312 C100.79261276 487.1637004 97.1403623 488.4168225 93.52734375 489.84765625 C88.31436123 491.82488271 82.92099853 493.051886 77.50390625 494.3359375 C76.4984375 494.5834375 75.49296875 494.8309375 74.45703125 495.0859375 C71.10717185 495.88789885 67.74859013 496.62185813 64.37890625 497.3359375 C63.12190918 497.6131665 61.86491211 497.89039551 60.56982422 498.17602539 C47.50372315 500.83480234 34.4230838 500.82648812 21.13183594 500.78198242 C17.28135178 500.77349798 13.43236903 500.80229132 9.58203125 500.83398438 C-11.23604655 500.89423278 -30.91182723 498.27956914 -50.99609375 492.8359375 C-52.09179688 492.55363281 -53.1875 492.27132813 -54.31640625 491.98046875 C-60.22929694 490.41737205 -65.86936344 488.57107896 -71.51318359 486.21484375 C-73.89081863 485.22347403 -76.29486975 484.37665492 -78.74609375 483.5859375 C-79.49117187 483.34359375 -80.23625 483.10125 -81.00390625 482.8515625 C-81.53757813 482.68140625 -82.07125 482.51125 -82.62109375 482.3359375 C-82.62109375 481.6759375 -82.62109375 481.0159375 -82.62109375 480.3359375 C-83.34635254 480.21444336 -84.07161133 480.09294922 -84.81884766 479.96777344 C-89.5202621 478.90772286 -93.66955347 476.66508047 -97.99609375 474.5859375 C-98.91648438 474.15539062 -99.836875 473.72484375 -100.78515625 473.28125 C-106.16585281 470.71388907 -110.84894095 467.90010175 -115.62109375 464.3359375 C-117.10258679 463.47012988 -118.60017376 462.63044794 -120.12109375 461.8359375 C-124.21897668 459.60775759 -127.95253754 457.22394984 -131.62109375 454.3359375 C-131.62109375 453.6759375 -131.62109375 453.0159375 -131.62109375 452.3359375 C-132.38421875 452.0471875 -133.14734375 451.7584375 -133.93359375 451.4609375 C-136.62109375 450.3359375 -136.62109375 450.3359375 -139.62109375 448.3359375 C-139.62109375 447.6759375 -139.62109375 447.0159375 -139.62109375 446.3359375 C-140.23984375 446.0265625 -140.85859375 445.7171875 -141.49609375 445.3984375 C-142.87109375 444.7109375 -144.24609375 444.0234375 -145.62109375 443.3359375 C-145.62109375 442.6759375 -145.62109375 442.0159375 -145.62109375 441.3359375 C-146.2126123 441.06515381 -146.80413086 440.79437012 -147.41357422 440.51538086 C-149.59500166 439.3498781 -151.13719623 438.14369459 -152.94140625 436.46484375 C-153.86058838 435.61176636 -153.86058838 435.61176636 -154.79833984 434.74145508 C-155.44109863 434.13325928 -156.08385742 433.52506348 -156.74609375 432.8984375 C-157.74697021 431.9561731 -157.74697021 431.9561731 -158.76806641 430.99487305 C-164.3530584 425.68663916 -169.6012016 420.18676743 -174.62109375 414.3359375 C-175.45898438 413.36269531 -176.296875 412.38945312 -177.16015625 411.38671875 C-183.87908 403.39866496 -183.87908 403.39866496 -185.62109375 398.3359375 C-186.28109375 398.3359375 -186.94109375 398.3359375 -187.62109375 398.3359375 C-189.19345096 396.32499109 -190.63662606 394.32436282 -192.05859375 392.2109375 C-192.45369141 391.64117187 -192.84878906 391.07140625 -193.25585938 390.484375 C-199.62109375 381.16423149 -199.62109375 381.16423149 -199.62109375 377.3359375 C-200.28109375 377.3359375 -200.94109375 377.3359375 -201.62109375 377.3359375 C-203.44293113 373.61126236 -205.25190059 369.88047902 -207.05859375 366.1484375 C-207.57486328 365.09333984 -208.09113281 364.03824219 -208.62304688 362.95117188 C-209.11611328 361.92958984 -209.60917969 360.90800781 -210.1171875 359.85546875 C-210.57279053 358.91807861 -211.02839355 357.98068848 -211.49780273 357.01489258 C-212.57802178 354.43866055 -213.18257172 352.08706329 -213.62109375 349.3359375 C-214.28109375 349.3359375 -214.94109375 349.3359375 -215.62109375 349.3359375 C-225.45687263 322.72352868 -233.68072055 294.96639962 -233.859375 266.421875 C-233.86744675 265.17580475 -233.87551849 263.9297345 -233.88383484 262.64590454 C-233.89763236 260.00836526 -233.90865762 257.3709489 -233.91625977 254.73339844 C-233.92503408 252.07639169 -233.94803838 249.42065728 -233.9777832 246.76367188 C-234.16371954 230.11873417 -233.31534074 214.57799946 -229.62109375 198.3359375 C-229.23597321 196.53182253 -228.85316847 194.72721169 -228.47265625 192.92211914 C-225.42836799 178.65272515 -220.60177998 165.03078938 -215.62109375 151.3359375 C-214.96109375 151.3359375 -214.30109375 151.3359375 -213.62109375 151.3359375 C-213.53085938 150.66691406 -213.440625 149.99789062 -213.34765625 149.30859375 C-212.42079027 145.51641628 -210.76678559 142.22568825 -208.99609375 138.7734375 C-208.64071533 138.07105957 -208.28533691 137.36868164 -207.91918945 136.64501953 C-205.18897381 131.30590421 -202.26159106 126.11994492 -199.1640625 120.984375 C-197.51793587 118.15887157 -196.05553342 115.27373888 -194.62109375 112.3359375 C-193.96109375 112.3359375 -193.30109375 112.3359375 -192.62109375 112.3359375 C-192.53859375 111.7996875 -192.45609375 111.2634375 -192.37109375 110.7109375 C-191.34528104 107.46253059 -189.65545481 105.04841891 -187.62109375 102.3359375 C-186.96109375 102.3359375 -186.30109375 102.3359375 -185.62109375 102.3359375 C-185.41226563 101.6553125 -185.2034375 100.9746875 -184.98828125 100.2734375 C-183.16881383 96.36418179 -180.60406635 93.53347529 -177.74609375 90.3359375 C-177.16746582 89.68020752 -176.58883789 89.02447754 -175.99267578 88.34887695 C-174.2104912 86.33694437 -172.41720986 84.33543442 -170.62109375 82.3359375 C-170.09064453 81.74087402 -169.56019531 81.14581055 -169.01367188 80.53271484 C-158.24932564 68.4828177 -146.43614741 58.14720788 -133.62109375 48.3359375 C-132.86699219 47.73652344 -132.11289063 47.13710938 -131.3359375 46.51953125 C-129.62109375 45.3359375 -129.62109375 45.3359375 -127.62109375 45.3359375 C-127.62109375 44.6759375 -127.62109375 44.0159375 -127.62109375 43.3359375 C-125.453125 41.890625 -125.453125 41.890625 -122.43359375 40.2109375 C-118.00198614 37.70746794 -113.67048195 35.12658496 -109.37109375 32.3984375 C-104.37483623 29.31126992 -99.29408055 26.49713139 -94.05859375 23.8359375 C-93.37958008 23.48539307 -92.70056641 23.13484863 -92.00097656 22.77368164 C-88.54641815 21.05376915 -86.55786584 20.3359375 -82.62109375 20.3359375 C-82.62109375 19.6759375 -82.62109375 19.0159375 -82.62109375 18.3359375 C-68.84292371 13.17924697 -55.13459834 8.70879675 -40.80859375 5.3984375 C-38.98013916 4.97582642 -38.98013916 4.97582642 -37.11474609 4.54467773 C-24.70473349 1.77305741 -12.73007744 0.02408595 0 0 Z " fill="#C7E585" transform="translate(233.62109375,-0.3359375)"/>
<path d="M0 0 C1.35544476 39.08199049 -11.95409072 77.66591572 -38.33984375 106.5625 C-56.78689236 125.69720196 -80.92597076 139.01358966 -107.1875 143.1875 C-108.24130859 143.36474609 -109.29511719 143.54199219 -110.38085938 143.72460938 C-115.29283997 144.52624956 -120.0040531 145.25022877 -125 145 C-122.42975005 125.51213468 -111.69523868 108.38582921 -100 93 C-99.50967285 92.34950684 -99.0193457 91.69901367 -98.51416016 91.02880859 C-97.01946879 89.05294618 -95.51297258 87.08689026 -94 85.125 C-93.53102295 84.51132568 -93.0620459 83.89765137 -92.57885742 83.26538086 C-91.43378726 81.80474846 -90.22246671 80.39649843 -89 79 C-88.34 79 -87.68 79 -87 79 C-86.72994141 78.40541992 -86.45988281 77.81083984 -86.18164062 77.19824219 C-85.00756894 75.01408073 -83.83502264 73.57706362 -82.09375 71.828125 C-81.51898926 71.24949707 -80.94422852 70.67086914 -80.35205078 70.07470703 C-79.74087402 69.47255371 -79.12969727 68.87040039 -78.5 68.25 C-77.56583252 67.3216333 -77.56583252 67.3216333 -76.61279297 66.37451172 C-71.67975834 61.53266541 -66.55566428 57.12194446 -61 53 C-91.66153149 66.83427017 -117.52957033 96.45540045 -129.95849609 127.38525391 C-131.96502132 132.83897362 -133.50351531 138.38926196 -135 144 C-135.27988014 145.03247108 -135.27988014 145.03247108 -135.56541443 146.08580017 C-139.87643752 162.61472821 -139.86564317 179.46954011 -140.20178223 196.4319458 C-140.28310825 200.34166858 -140.38470959 204.25086562 -140.484375 208.16015625 C-140.67558828 215.77307104 -140.84509765 223.38625033 -141 231 C-140.31664581 230.98935013 -139.63329163 230.97870026 -138.92922974 230.96772766 C-138.03106537 230.95944443 -137.132901 230.95116119 -136.20751953 230.94262695 C-135.31791534 230.93197708 -134.42831116 230.92132721 -133.51174927 230.91035461 C-125.54330458 231.19475175 -117.3545531 236.42361903 -111 241 C-110.39542969 241.42796875 -109.79085937 241.8559375 -109.16796875 242.296875 C-100.39186147 249.10361616 -96.21815323 259.36294702 -94 270 C-92.2511228 287.40132815 -98.3710065 306.1316252 -109.35839844 319.67431641 C-112.74078457 323.61223655 -116.32001886 327.34075115 -120 331 C-120.6909375 331.6909375 -121.381875 332.381875 -122.09375 333.09375 C-136.73050163 346.73817948 -158.52659082 355.85477799 -178.546875 355.34765625 C-190.01122859 354.19343966 -201.43368029 348.62108458 -209.3359375 340.17578125 C-218.66681892 327.97554427 -221.14577055 316.0586987 -220 301 C-217.4380518 284.69981948 -209.13219181 270.00159898 -198 258 C-197.23042969 257.15050781 -196.46085937 256.30101562 -195.66796875 255.42578125 C-186.44571811 245.69697726 -175.36373627 238.21116157 -163 233 C-162.34 233 -161.68 233 -161 233 C-161.55152937 204.48060696 -161.55152937 204.48060696 -163 176 C-163.05236816 175.24315918 -163.10473633 174.48631836 -163.15869141 173.70654297 C-164.85316846 150.87644784 -173.19344856 128.35927307 -188.4375 110.9375 C-191 108 -191 108 -191 106 C-191.66 106 -192.32 106 -193 106 C-194.48046875 104.49609375 -194.48046875 104.49609375 -196.1875 102.4375 C-208.82403046 87.71632806 -226.67953056 73.27365223 -246 69 C-245.06994141 69.53173828 -245.06994141 69.53173828 -244.12109375 70.07421875 C-216.31494154 86.79028987 -190.79982935 115.08353612 -178 145 C-178 145.66 -178 146.32 -178 147 C-208.68869521 147.89192117 -234.51623426 138.57372615 -257.02905273 117.42382812 C-264.27188439 110.3867769 -269.8030506 102.62461967 -275 94 C-275.57363281 93.07703125 -276.14726562 92.1540625 -276.73828125 91.203125 C-286.5075668 74.54232794 -292.07332558 53.4357504 -292.015625 34.20703125 C-292.01336914 33.22839111 -292.01111328 32.24975098 -292.00878906 31.24145508 C-292.00588867 30.5017749 -292.00298828 29.76209473 -292 29 C-265.48408939 28.30249527 -239.86107573 31.56618883 -216 44 C-216 44.66 -216 45.32 -216 46 C-215.14792969 46.22816406 -214.29585938 46.45632812 -213.41796875 46.69140625 C-209.4977741 48.19228077 -206.53818983 50.32437455 -203.3125 52.9375 C-202.40056885 53.66839844 -202.40056885 53.66839844 -201.47021484 54.4140625 C-178.33640704 73.26517794 -164.11401956 99.92515582 -155 128 C-152.74860937 124.62291405 -152.20571592 122.07778359 -151.3125 118.125 C-145.20328926 92.62465807 -135.10477199 69.11106525 -118 49 C-117.12021484 47.93652344 -117.12021484 47.93652344 -116.22265625 46.8515625 C-112.24481963 42.14310282 -107.98066571 37.66393799 -103 34 C-102.34 34 -101.68 34 -101 34 C-101 33.34 -101 32.68 -101 32 C-99.38623047 30.69067383 -99.38623047 30.69067383 -97.1171875 29.20703125 C-95.87146973 28.39020874 -95.87146973 28.39020874 -94.60058594 27.55688477 C-93.70114258 26.98123779 -92.80169922 26.40559082 -91.875 25.8125 C-90.50263184 24.9306604 -90.50263184 24.9306604 -89.10253906 24.03100586 C-61.39522576 6.45013691 -32.61612074 -0.59603063 0 0 Z " fill="#438502" transform="translate(397,96)"/>
<path d="M0 0 C-0.49371094 0.48210937 -0.98742187 0.96421875 -1.49609375 1.4609375 C-2.45708984 2.40839844 -2.45708984 2.40839844 -3.4375 3.375 C-4.39462891 4.31472656 -4.39462891 4.31472656 -5.37109375 5.2734375 C-7.07882176 6.91723061 -7.07882176 6.91723061 -8 9 C-8.66 9 -9.32 9 -10 9 C-10.66 10.32 -11.32 11.64 -12 13 C-12.66 13 -13.32 13 -14 13 C-14.21398437 13.53496094 -14.42796875 14.06992187 -14.6484375 14.62109375 C-16.50042208 17.88080072 -19.04116233 20.38252323 -21.625 23.0625 C-28.810149 30.68108686 -35.05918239 38.73596698 -40 48 C-42.17412765 41.87549662 -38.2819336 35.7619842 -35.7109375 30.22265625 C-29.25110124 17.64582421 -19.50569748 5.27743641 -6 0 C-2.31818182 -1.15909091 -2.31818182 -1.15909091 0 0 Z " fill="#C5E380" transform="translate(247,349)"/>
<path d="M0 0 C0.33 0.99 0.66 1.98 1 3 C-1.86286684 6.021915 -4.24686836 8.24071954 -8 10 C-9.299375 11.051875 -9.299375 11.051875 -10.625 12.125 C-13 14 -13 14 -15 14 C-15.103125 14.639375 -15.20625 15.27875 -15.3125 15.9375 C-15.539375 16.618125 -15.76625 17.29875 -16 18 C-16.99 18.33 -17.98 18.66 -19 19 C-19.28875 19.94875 -19.5775 20.8975 -19.875 21.875 C-21.21973749 25.61038193 -22.49258017 26.33859061 -26 28 C-26.66 27.34 -27.32 26.68 -28 26 C-26.71937515 24.2925002 -25.38232443 22.62626404 -24 21 C-23.34 21 -22.68 21 -22 21 C-21.73356689 20.40977051 -21.46713379 19.81954102 -21.19262695 19.21142578 C-19.19434612 15.50611814 -16.15187665 12.82417472 -13.1875 9.875 C-12.57068359 9.24207031 -11.95386719 8.60914063 -11.31835938 7.95703125 C-8.07182586 4.70704764 -5.50181039 2.34804673 -1 1 C-0.67 0.67 -0.34 0.34 0 0 Z " fill="#497F0D" transform="translate(332,154)"/>
<path d="M0 0 C0.66 0.33 1.32 0.66 2 1 C2 3 2 3 0.625 4.625 C-1 6 -1 6 -3 6 C-2.67 6.99 -2.34 7.98 -2 9 C-2.59167969 9.23074219 -3.18335938 9.46148437 -3.79296875 9.69921875 C-8.96431909 11.83356073 -12.23739836 13.89534366 -16 18 C-16.66 18 -17.32 18 -18 18 C-18.0825 18.78375 -18.165 19.5675 -18.25 20.375 C-19 23 -19 23 -21.0625 24.3125 C-21.701875 24.539375 -22.34125 24.76625 -23 25 C-23.33 24.01 -23.66 23.02 -24 22 C-19.66666667 17.66666667 -15.33333333 13.33333333 -11 9 C-9.9171875 7.8553125 -9.9171875 7.8553125 -8.8125 6.6875 C-7 5 -7 5 -5 5 C-5 4.34 -5 3.68 -5 3 C-2.625 1.3125 -2.625 1.3125 0 0 Z " fill="#477F0B" transform="translate(301,125)"/>
<path d="M0 0 C0.99 0 1.98 0 3 0 C3.66 1.32 4.32 2.64 5 4 C5.66 3.67 6.32 3.34 7 3 C7.33 4.32 7.66 5.64 8 7 C8.66 7 9.32 7 10 7 C9.67 8.65 9.34 10.3 9 12 C9.99 12.33 10.98 12.66 12 13 C12 13.66 12 14.32 12 15 C12.66 15 13.32 15 14 15 C14.93637414 16.43800315 15.86960101 17.87822737 16.78125 19.33203125 C18.78725325 22.07742673 21.31921165 23.92848173 24 26 C23.34 26.66 22.68 27.32 22 28 C3.8930477 10.57402276 3.8930477 10.57402276 0 3 C0 2.01 0 1.02 0 0 Z " fill="#4A810D" transform="translate(125,192)"/>
<path d="M0 0 C0.66 0 1.32 0 2 0 C-0.96725869 8.88615893 -9.54519924 14.8202338 -17 20 C-17 17 -17 17 -16 14 C-15.34 14 -14.68 14 -14 14 C-13.7525 13.360625 -13.505 12.72125 -13.25 12.0625 C-12 10 -12 10 -10 9.25 C-8 9 -8 9 -6 9 C-6.33 8.01 -6.66 7.02 -7 6 C-6.67 5.01 -6.34 4.02 -6 3 C-5.195625 2.87625 -4.39125 2.7525 -3.5625 2.625 C-2.716875 2.41875 -1.87125 2.2125 -1 2 C-0.67 1.34 -0.34 0.68 0 0 Z " fill="#B3C57D" transform="translate(432,419)"/>
<path d="M0 0 C6.01401454 0.38159991 9.16405507 2.0659681 13.75 5.875 C14.31332031 6.32230469 14.87664062 6.76960937 15.45703125 7.23046875 C18.11057738 9.35706955 20.66886824 11.52112045 23 14 C22.67 14.99 22.34 15.98 22 17 C19 16 19 16 17.8125 13.9375 C17.544375 13.298125 17.27625 12.65875 17 12 C16.34 12 15.68 12 15 12 C15 11.34 15 10.68 15 10 C13.68 9.34 12.36 8.68 11 8 C11 7.34 11 6.68 11 6 C10.01 6 9.02 6 8 6 C8 5.34 8 4.68 8 4 C7.236875 3.855625 6.47375 3.71125 5.6875 3.5625 C3 3 3 3 0 2 C0 1.34 0 0.68 0 0 Z " fill="#497D0C" transform="translate(148,166)"/>
<path d="M0 0 C0.33 0.99 0.66 1.98 1 3 C3.31 3.33 5.62 3.66 8 4 C8.33 3.34 8.66 2.68 9 2 C9 5.33333333 9 8.66666667 9 12 C7.68 11.67 6.36 11.34 5 11 C5 11.99 5 12.98 5 14 C5.99 14.33 6.98 14.66 8 15 C8 16.65 8 18.3 8 20 C7.34 19.67 6.68 19.34 6 19 C6 17.68 6 16.36 6 15 C5.34 15 4.68 15 4 15 C3.32532438 13.25307205 2.66055844 11.50231475 2 9.75 C1.62875 8.77546875 1.2575 7.8009375 0.875 6.796875 C0 4 0 4 0 0 Z " fill="#A4B76D" transform="translate(14,334)"/>
<path d="M0 0 C1.99097846 2.98646769 2.94124926 5.59687262 4 9 C0.95827281 9.0271045 -2.08320997 9.04688964 -5.125 9.0625 C-5.9809375 9.07087891 -6.836875 9.07925781 -7.71875 9.08789062 C-12.26678411 9.10538306 -16.52383164 8.93192358 -21 8 C-17.12328894 5.32710975 -13.20732397 5.98124347 -8.75 6.375 C-8.00492188 6.43171875 -7.25984375 6.4884375 -6.4921875 6.546875 C-4.66064892 6.68776258 -2.83018648 6.84251884 -1 7 C-0.67 4.69 -0.34 2.38 0 0 Z " fill="#4C7F10" transform="translate(215,234)"/>
<path d="M0 0 C0 0.66 0 1.32 0 2 C1.794375 1.938125 1.794375 1.938125 3.625 1.875 C7.42329953 1.86148292 10.44975618 2.57990247 14 4 C14 4.66 14 5.32 14 6 C15.65 6 17.3 6 19 6 C19 6.33 19 6.66 19 7 C9.0753735 6.56279178 -0.3722704 4.27718577 -10 2 C-10 1.67 -10 1.34 -10 1 C-3.375 -1.125 -3.375 -1.125 0 0 Z " fill="#ADBE7A" transform="translate(194,491)"/>
<path d="M0 0 C2 3 2 3 3 6 C2.01642648 8.00812926 1.01691264 10.00854609 0 12 C0.33 12.66 0.66 13.32 1 14 C2.89533342 14.46523063 2.89533342 14.46523063 5.0625 14.625 C6.361875 14.74875 7.66125 14.8725 9 15 C9 15.33 9 15.66 9 16 C2.565 16.495 2.565 16.495 -4 17 C-2 5.28571429 -2 5.28571429 0 0 Z " fill="#4F8213" transform="translate(276,224)"/>
<path d="M0 0 C0.99 0.33 1.98 0.66 3 1 C3 2.32 3 3.64 3 5 C2.34 5 1.68 5 1 5 C1.33 5.99 1.66 6.98 2 8 C1.236875 8.12375 0.47375 8.2475 -0.3125 8.375 C-3.20267136 8.88102792 -3.20267136 8.88102792 -6 11 C-6.33 11.99 -6.66 12.98 -7 14 C-8.65 14.33 -10.3 14.66 -12 15 C-8.19695186 9.80789528 -4.23841458 4.84390238 0 0 Z " fill="#B0C277" transform="translate(68,76)"/>
<path d="M0 0 C0 3.62453269 -0.92469613 5.07920195 -3 8 C-3.99 8.33 -4.98 8.66 -6 9 C-6.12375 9.556875 -6.2475 10.11375 -6.375 10.6875 C-7.33020166 14.22174615 -9.58535064 16.27578021 -12 19 C-12.66 18.34 -13.32 17.68 -14 17 C-9.70351846 10.87151618 -5.50510597 5.09222302 0 0 Z " fill="#487C0B" transform="translate(203,350)"/>
<path d="M0 0 C0.78375 0.165 1.5675 0.33 2.375 0.5 C4.88208039 1.0623707 4.88208039 1.0623707 7 1 C9 1 11 1 13 1 C12.67 2.98 12.34 4.96 12 7 C12.99 7.33 13.98 7.66 15 8 C11.08878502 7.31063929 7.44491404 6.21749819 3.6875 4.9375 C2.61886719 4.57527344 1.55023438 4.21304687 0.44921875 3.83984375 C-0.76314453 3.42412109 -0.76314453 3.42412109 -2 3 C-1.34 2.01 -0.68 1.02 0 0 Z " fill="#AABF6E" transform="translate(159,481)"/>
<path d="M0 0 C-3.06800712 3.86835681 -6.20353974 4.95650986 -10.78125 6.2890625 C-12.99534032 6.99850693 -14.95033412 7.90995042 -17 9 C-17.33 8.01 -17.66 7.02 -18 6 C-17.34 6 -16.68 6 -16 6 C-16 5.34 -16 4.68 -16 4 C-5.62642369 -0.59225513 -5.62642369 -0.59225513 0 0 Z " fill="#477F0D" transform="translate(249,345)"/>
<path d="M0 0 C0.33 0.66 0.66 1.32 1 2 C-3.32893185 7.18419194 -7.76564995 11.72706118 -13 16 C-12.67 14.35 -12.34 12.7 -12 11 C-11.34 11 -10.68 11 -10 11 C-9.67 10.01 -9.34 9.02 -9 8 C-7.71034824 6.62437146 -6.37310707 5.29233607 -5 4 C-4.46375 3.443125 -3.9275 2.88625 -3.375 2.3125 C-2 1 -2 1 0 0 Z " fill="#4A7C0D" transform="translate(285,415)"/>
<path d="M0 0 C0 3 0 3 -1.42578125 4.5 C-2.04839844 4.995 -2.67101562 5.49 -3.3125 6 C-5.67486744 7.90178008 -7.89016786 9.81875816 -10 12 C-10.99 11.67 -11.98 11.34 -13 11 C-12.87890625 9.234375 -12.87890625 9.234375 -12 7 C-9.27734375 5.078125 -9.27734375 5.078125 -5.9375 3.25 C-4.83277344 2.63640625 -3.72804688 2.0228125 -2.58984375 1.390625 C-1.73519531 0.93171875 -0.88054687 0.4728125 0 0 Z " fill="#487F09" transform="translate(320,113)"/>
<path d="M0 0 C6.51819877 1.89536276 12.17814801 4.5178994 18 8 C14.38936946 9.08318916 13.32823121 8.66411561 10 7 C7.80252869 7.29805007 7.80252869 7.29805007 6 8 C6 6.68 6 5.36 6 4 C4.35 3.67 2.7 3.34 1 3 C0.67 2.01 0.34 1.02 0 0 Z " fill="#B8CB77" transform="translate(348,19)"/>
<path d="M0 0 C2.96656949 5.49687876 4.4036063 11.74410231 4 18 C3.67 16.68 3.34 15.36 3 14 C2.34 14 1.68 14 1 14 C1 13.01 1 12.02 1 11 C0.01 11 -0.98 11 -2 11 C-2.33 9.35 -2.66 7.7 -3 6 C-2.34 6 -1.68 6 -1 6 C-0.67 4.02 -0.34 2.04 0 0 Z " fill="#B2C378" transform="translate(493,189)"/>
<path d="M0 0 C2.3125 0.1875 2.3125 0.1875 4 1 C4 5 4 5 2.625 6.75 C1 8 1 8 -1 8 C-1 7.34 -1 6.68 -1 6 C-2.32 5.67 -3.64 5.34 -5 5 C-2.75 2.4375 -2.75 2.4375 0 0 Z " fill="#CBE687" transform="translate(311,164)"/>
<path d="M0 0 C0.78552246 0.05236816 1.57104492 0.10473633 2.38037109 0.15869141 C3.65654297 0.23603516 3.65654297 0.23603516 4.95849609 0.31494141 C5.84794922 0.37939453 6.73740234 0.44384766 7.65380859 0.51025391 C8.99958984 0.59533203 8.99958984 0.59533203 10.37255859 0.68212891 C12.59209484 0.82380143 14.81053262 0.9752243 17.02880859 1.13525391 C17.02880859 2.12525391 17.02880859 3.11525391 17.02880859 4.13525391 C2.24748741 4.50427441 2.24748741 4.50427441 -3.97119141 2.13525391 C-1.97119141 0.13525391 -1.97119141 0.13525391 0 0 Z " fill="#588F1E" transform="translate(211.97119140625,446.86474609375)"/>
<path d="M0 0 C1.75152066 2.62728098 3.37608885 5.29348141 5 8 C5.99 9.485 5.99 9.485 7 11 C7 11.66 7 12.32 7 13 C6.34 13 5.68 13 5 13 C5 14.98 5 16.96 5 19 C2.93421237 15.90131855 2.25308642 13.65023694 1.375 10.0625 C1.11460938 9.02222656 0.85421875 7.98195313 0.5859375 6.91015625 C0 4 0 4 0 0 Z " fill="#9DAD69" transform="translate(6,307)"/>
<path d="M0 0 C0.66 0.33 1.32 0.66 2 1 C2 1.66 2 2.32 2 3 C2.66 3 3.32 3 4 3 C4 6 4 9 4 12 C3.01 12.495 3.01 12.495 2 13 C1.27249212 11.59308393 0.56859647 10.17393978 -0.125 8.75 C-0.51945313 7.96109375 -0.91390625 7.1721875 -1.3203125 6.359375 C-2 4 -2 4 -1.1171875 1.703125 C-0.74851563 1.14109375 -0.37984375 0.5790625 0 0 Z " fill="#C8E785" transform="translate(217,230)"/>
<path d="M0 0 C0.99 0 1.98 0 3 0 C3.33 0.99 3.66 1.98 4 3 C6.31 3 8.62 3 11 3 C8.38158129 5.61841871 6.28412235 5.81850937 2.6875 6.625 C1.55699219 6.88539063 0.42648437 7.14578125 -0.73828125 7.4140625 C-3.59220771 7.9267439 -6.11339907 8.11914675 -9 8 C-6.03312999 6.35173889 -3.34373475 5.55728913 0 5 C-0.99 4.01 -1.98 3.02 -3 2 C-2.01 2 -1.02 2 0 2 C0 1.34 0 0.68 0 0 Z " fill="#98AB68" transform="translate(307,488)"/>
<path d="M0 0 C0.66 0.33 1.32 0.66 2 1 C-1 9.57142857 -1 9.57142857 -4 13 C-4.103125 12.360625 -4.20625 11.72125 -4.3125 11.0625 C-4.539375 10.381875 -4.76625 9.70125 -5 9 C-5.99 8.67 -6.98 8.34 -8 8 C-7.34 6.68 -6.68 5.36 -6 4 C-4.02 4 -2.04 4 0 4 C0 2.68 0 1.36 0 0 Z " fill="#A5B871" transform="translate(481,344)"/>
<path d="M0 0 C0.33 1.32 0.66 2.64 1 4 C0.34 4 -0.32 4 -1 4 C-1 5.32 -1 6.64 -1 8 C-1.61875 8.2475 -2.2375 8.495 -2.875 8.75 C-5.4072196 10.23954094 -5.80718658 11.37581048 -7 14 C-8.5 15.75 -8.5 15.75 -10 17 C-10.66 17 -11.32 17 -12 17 C-11 15 -10 13 -9 11 C-8.34 11 -7.68 11 -7 11 C-6.773125 10.29875 -6.54625 9.5975 -6.3125 8.875 C-4.68343133 5.30656387 -2.59359269 2.93485489 0 0 Z " fill="#8D9C63" transform="translate(55,91)"/>
<path d="M0 0 C0.99 0 1.98 0 3 0 C3 0.66 3 1.32 3 2 C3.66 2 4.32 2 5 2 C5.93637414 3.43800315 6.86960101 4.87822737 7.78125 6.33203125 C9.78725325 9.07742673 12.31921165 10.92848173 15 13 C14.34 13.66 13.68 14.32 13 15 C10.82722286 12.88094537 8.66173092 10.75527122 6.5 8.625 C5.87996094 8.02171875 5.25992188 7.4184375 4.62109375 6.796875 C4.03457031 6.21679688 3.44804687 5.63671875 2.84375 5.0390625 C2.29912109 4.50490723 1.75449219 3.97075195 1.19335938 3.42041016 C0 2 0 2 0 0 Z " fill="#46770A" transform="translate(134,205)"/>
<path d="M0 0 C5.7524932 2.44786945 5.7524932 2.44786945 6.8125 4.8125 C6.874375 5.534375 6.93625 6.25625 7 7 C7.185625 8.0725 7.37125 9.145 7.5625 10.25 C7.706875 11.1575 7.85125 12.065 8 13 C5.06913285 10.17380667 2.33859554 7.34085077 0 4 C0 2.68 0 1.36 0 0 Z " fill="#47810D" transform="translate(206,200)"/>
<path d="M0 0 C4.50884026 2.31883213 6.93906776 5.06451569 10 9 C8.02 9.99 8.02 9.99 6 11 C5.7525 10.195625 5.505 9.39125 5.25 8.5625 C4.27761141 5.828919 4.27761141 5.828919 1.875 5.1875 C1.25625 5.125625 0.6375 5.06375 0 5 C0 3.35 0 1.7 0 0 Z " fill="#ADC173" transform="translate(420,66)"/>
<path d="M0 0 C0.5775 0.2475 1.155 0.495 1.75 0.75 C0.76 1.6471875 0.76 1.6471875 -0.25 2.5625 C-2.5873846 4.62501834 -2.5873846 4.62501834 -2.25 7.75 C-4.89 8.08 -7.53 8.41 -10.25 8.75 C-9.59 8.42 -8.93 8.09 -8.25 7.75 C-7.96125 7.151875 -7.6725 6.55375 -7.375 5.9375 C-5.68325548 2.64799677 -3.99574371 -0.44397152 0 0 Z " fill="#4B7F0F" transform="translate(247.25,350.25)"/>
<path d="M0 0 C0.33 0 0.66 0 1 0 C0.95875 1.093125 0.9175 2.18625 0.875 3.3125 C0.67925334 7.08892229 0.67925334 7.08892229 3 10 C1.35 11.65 -0.3 13.3 -2 15 C-2.19144603 5.23625255 -2.19144603 5.23625255 -1 1 C-0.67 0.67 -0.34 0.34 0 0 Z " fill="#C3DF7C" transform="translate(296,178)"/>
<path d="M0 0 C5.28 0.33 10.56 0.66 16 1 C14 3 14 3 10.7421875 3.1953125 C9.46601563 3.17210937 8.18984375 3.14890625 6.875 3.125 C4.95300781 3.09792969 4.95300781 3.09792969 2.9921875 3.0703125 C1.51105469 3.03550781 1.51105469 3.03550781 0 3 C0 2.01 0 1.02 0 0 Z " fill="#4A7F0E" transform="translate(120,125)"/>
<path d="M0 0 C2 2 2 2 2 5 C0.25 6.60546875 0.25 6.60546875 -2 8.1875 C-2.7425 8.71730469 -3.485 9.24710937 -4.25 9.79296875 C-4.8275 10.19128906 -5.405 10.58960938 -6 11 C-6 8 -6 8 -5 5 C-4.34 5 -3.68 5 -3 5 C-2.690625 4.360625 -2.38125 3.72125 -2.0625 3.0625 C-1 1 -1 1 0 0 Z " fill="#BDD081" transform="translate(421,428)"/>
<path d="M0 0 C5.80933377 3.18130183 8.61681985 7.3853606 12 13 C10.35 12.67 8.7 12.34 7 12 C7 11.01 7 10.02 7 9 C6.34 9 5.68 9 5 9 C4.67 7.68 4.34 6.36 4 5 C3.34 5 2.68 5 2 5 C1.34 3.35 0.68 1.7 0 0 Z " fill="#4A800D" transform="translate(195,207)"/>
<path d="M0 0 C0.99 0.99 1.98 1.98 3 3 C0.36 6.63 -2.28 10.26 -5 14 C-5.33 12.68 -5.66 11.36 -6 10 C-5.34 9.67 -4.68 9.34 -4 9 C-3.30741771 7.00882592 -2.64252365 5.0078864 -2 3 C-1.34 2.01 -0.68 1.02 0 0 Z " fill="#4B810F" transform="translate(372,179)"/>
<path d="M0 0 C2.475 0.99 2.475 0.99 5 2 C4.06725891 3.12894876 3.12859878 4.25300876 2.1875 5.375 C1.66542969 6.00148438 1.14335937 6.62796875 0.60546875 7.2734375 C-1 9 -1 9 -4 11 C-3.67 9.35 -3.34 7.7 -3 6 C-2.34 6 -1.68 6 -1 6 C-1.020625 5.195625 -1.04125 4.39125 -1.0625 3.5625 C-1 1 -1 1 0 0 Z " fill="#457D0B" transform="translate(225,353)"/>
<path d="M0 0 C4.59306496 1.4859916 7.43569245 3.85014682 11 7 C10.01 8.485 10.01 8.485 9 10 C6.525 9.01 6.525 9.01 4 8 C4 6.68 4 5.36 4 4 C3.34 4 2.68 4 2 4 C2 3.34 2 2.68 2 2 C1.34 2 0.68 2 0 2 C0 1.34 0 0.68 0 0 Z " fill="#4E850F" transform="translate(280,334)"/>
<path d="M0 0 C0.33 0.66 0.66 1.32 1 2 C0 3 -1 4 -2 5 C-3.2065625 6.2684375 -3.2065625 6.2684375 -4.4375 7.5625 C-6.63477594 9.65259175 -8.23321903 10.87279294 -11 12 C-9.65422692 7.71866696 -7.97986553 5.81390203 -4.375 3.1875 C-3.55773437 2.58292969 -2.74046875 1.97835937 -1.8984375 1.35546875 C-0.95871094 0.68451172 -0.95871094 0.68451172 0 0 Z " fill="#4B810E" transform="translate(349,207)"/>
<path d="M0 0 C2 3 2 3 1.625 5.5 C1.41875 6.325 1.2125 7.15 1 8 C1 8.99 1 9.98 1 11 C0.01 11 -0.98 11 -2 11 C-1.67 12.98 -1.34 14.96 -1 17 C-1.99 17.33 -2.98 17.66 -4 18 C-3.48914188 11.56318772 -2.27057103 6.04057576 0 0 Z " fill="#94A265" transform="translate(10,175)"/>
<path d="M0 0 C0.33 0 0.66 0 1 0 C2.32 5.28 3.64 10.56 5 16 C4.34 16 3.68 16 3 16 C0.79772118 12.69658177 0.02202664 9.81556611 -1 6 C-1.33 5.01 -1.66 4.02 -2 3 C-1.34 2.01 -0.68 1.02 0 0 Z " fill="#96A567" transform="translate(488,170)"/>
<path d="M0 0 C0.33 0.66 0.66 1.32 1 2 C0.00390625 4.1640625 0.00390625 4.1640625 -1.4375 6.625 C-1.91058594 7.44226563 -2.38367188 8.25953125 -2.87109375 9.1015625 C-3.24363281 9.72804687 -3.61617188 10.35453125 -4 11 C-4.99 11 -5.98 11 -7 11 C-6.60246179 9.53633658 -6.18118616 8.0791065 -5.75 6.625 C-5.51796875 5.81289062 -5.2859375 5.00078125 -5.046875 4.1640625 C-3.7785108 1.54214546 -2.67576692 1.00617682 0 0 Z " fill="#4B830F" transform="translate(263,173)"/>
<path d="M0 0 C0.66 0.33 1.32 0.66 2 1 C1.01 2.485 1.01 2.485 0 4 C-0.309375 4.680625 -0.61875 5.36125 -0.9375 6.0625 C-2 8 -2 8 -5 10 C-5.12375 9.360625 -5.2475 8.72125 -5.375 8.0625 C-5.684375 7.0415625 -5.684375 7.0415625 -6 6 C-6.66 5.67 -7.32 5.34 -8 5 C-6.71475739 4.13619741 -5.42157581 3.28419631 -4.125 2.4375 C-3.04605469 1.72400391 -3.04605469 1.72400391 -1.9453125 0.99609375 C-1.30335937 0.66738281 -0.66140625 0.33867188 0 0 Z " fill="#AEC06F" transform="translate(124,32)"/>
<path d="M0 0 C0.33 0 0.66 0 1 0 C1.89604368 6.04829486 2.11269443 11.8894576 2 18 C1.34 18 0.68 18 0 18 C-2.53466037 12.93067925 -1.12536783 5.34549719 0 0 Z " fill="#BCDC78" transform="translate(258,254)"/>
<path d="M0 0 C0.33 0.66 0.66 1.32 1 2 C-0.24125182 4.61161731 -1.5310524 7.10501786 -2.9375 9.625 C-3.32357422 10.33140625 -3.70964844 11.0378125 -4.10742188 11.765625 C-5.06448696 13.51433651 -6.03134031 15.25768432 -7 17 C-8 15 -8 15 -7.328125 12.43359375 C-6.97234375 11.44488281 -6.6165625 10.45617187 -6.25 9.4375 C-5.73179687 7.95056641 -5.73179687 7.95056641 -5.203125 6.43359375 C-4.80609375 5.63050781 -4.4090625 4.82742188 -4 4 C-3.01 3.67 -2.02 3.34 -1 3 C-0.67 2.01 -0.34 1.02 0 0 Z " fill="#737F50" transform="translate(474,361)"/>
<path d="M0 0 C0.66 0 1.32 0 2 0 C1.67 0.66 1.34 1.32 1 2 C0.67 1.34 0.34 0.68 0 0 Z M0 2 C4.875 5.625 4.875 5.625 6 9 C1.75354935 9 -0.38524772 7.18249194 -4 5 C-2.68 4.01 -1.36 3.02 0 2 Z " fill="#BFE17E" transform="translate(282,328)"/>
<path d="M0 0 C2.62113708 0 4.50935112 0.31292445 7 1 C4.11912454 3.40072955 1.43595166 5.47291037 -2 7 C-2.99 6.34 -3.98 5.68 -5 5 C-4.175 4.54625 -3.35 4.0925 -2.5 3.625 C-1.2625 2.820625 -1.2625 2.820625 0 2 C0 1.34 0 0.68 0 0 Z " fill="#46810C" transform="translate(329,146)"/>
<path d="M0 0 C0 0.99 0 1.98 0 3 C2.64 3.33 5.28 3.66 8 4 C8 4.33 8 4.66 8 5 C1.85845775 4.41509121 -4.00679849 3.45933748 -10 2 C-10 1.67 -10 1.34 -10 1 C-3.375 -1.125 -3.375 -1.125 0 0 Z " fill="#8FA062" transform="translate(194,491)"/>
<path d="M0 0 C0.65234375 1.734375 0.65234375 1.734375 1 4 C0.00390625 6.140625 0.00390625 6.140625 -1.4375 8.25 C-1.91058594 8.95640625 -2.38367188 9.6628125 -2.87109375 10.390625 C-3.24363281 10.92171875 -3.61617188 11.4528125 -4 12 C-4.99 11.34 -5.98 10.68 -7 10 C-5.7260411 7.96166576 -4.38938077 5.96147874 -3 4 C-2.34 4 -1.68 4 -1 4 C-0.67 2.68 -0.34 1.36 0 0 Z " fill="#49820E" transform="translate(292,403)"/>
<path d="M0 0 C0.99 0.99 1.98 1.98 3 3 C1.86280581 6.41158256 0.95657056 7.11854601 -2 9 C-2.66 9 -3.32 9 -4 9 C-3.35455571 5.51460083 -1.89865603 2.97180943 0 0 Z " fill="#49820B" transform="translate(288,202)"/>
<path d="M0 0 C0.66 0.99 1.32 1.98 2 3 C1.125 5.6875 1.125 5.6875 0 8 C0.66 8.33 1.32 8.66 2 9 C0.68 10.65 -0.64 12.3 -2 14 C-2.66 13.67 -3.32 13.34 -4 13 C-2.68 8.71 -1.36 4.42 0 0 Z " fill="#4E8010" transform="translate(253,189)"/>
<path d="M0 0 C0.66 0.99 1.32 1.98 2 3 C-2.625 8.875 -2.625 8.875 -6 10 C-5.67 7.69 -5.34 5.38 -5 3 C-3.68 3 -2.36 3 -1 3 C-0.67 2.01 -0.34 1.02 0 0 Z " fill="#48800A" transform="translate(288,183)"/>
<path d="M0 0 C0.99 0.33 1.98 0.66 3 1 C2.34 2.32 1.68 3.64 1 5 C0.01 5 -0.98 5 -2 5 C-2.66 6.65 -3.32 8.3 -4 10 C-4.66 10 -5.32 10 -6 10 C-4.6302836 6.00499382 -2.74277578 3.19990508 0 0 Z " fill="#46780C" transform="translate(219,378)"/>
<path d="M0 0 C1.093125 0.185625 2.18625 0.37125 3.3125 0.5625 C6.93624133 1.2578068 6.93624133 1.2578068 10 0 C10.66 0.33 11.32 0.66 12 1 C12 1.99 12 2.98 12 4 C9.39517051 4.94721072 7.69325299 5.30222393 5.109375 4.17578125 C3.37417127 3.17063275 1.68359577 2.0893855 0 1 C0 0.67 0 0.34 0 0 Z " fill="#8A9D5A" transform="translate(124,467)"/>
<path d="M0 0 C1.125 1.5 1.125 1.5 2 4 C1.57598348 6.7773082 0.81108065 9.29639783 0 12 C-0.33 11.01 -0.66 10.02 -1 9 C-1.99 8.67 -2.98 8.34 -4 8 C-3.67 7.01 -3.34 6.02 -3 5 C-2.34 5 -1.68 5 -1 5 C-0.67 3.35 -0.34 1.7 0 0 Z " fill="#C0E17B" transform="translate(247,201)"/>
<path d="M0 0 C0.66 0.66 1.32 1.32 2 2 C1.69690596 6.09176955 1.12300942 9.46165096 -1 13 C-2.42857143 4.57142857 -2.42857143 4.57142857 0 0 Z " fill="#528717" transform="translate(390,136)"/>
<path d="M0 0 C0.66 1.32 1.32 2.64 2 4 C-1.465 5.485 -1.465 5.485 -5 7 C-5.625 5.125 -5.625 5.125 -6 3 C-3.8614515 0.8614515 -2.86724686 0.57344937 0 0 Z " fill="#AAC270" transform="translate(365,469)"/>
<path d="M0 0 C3.11257569 0 5.10765685 0.17361624 8 1 C6.63016497 4.16115776 6.0109362 4.9927092 3 7 C2.71125 6.38125 2.4225 5.7625 2.125 5.125 C1.06279958 2.86674235 1.06279958 2.86674235 -1 1 C-0.67 0.67 -0.34 0.34 0 0 Z " fill="#CBEA88" transform="translate(221,365)"/>
<path d="M0 0 C1.32 0.33 2.64 0.66 4 1 C5.046875 2.84765625 5.046875 2.84765625 5.75 5.0625 C5.99234375 5.79597656 6.2346875 6.52945312 6.484375 7.28515625 C6.65453125 7.85105469 6.8246875 8.41695313 7 9 C5.35 8.67 3.7 8.34 2 8 C1.34 5.36 0.68 2.72 0 0 Z " fill="#487E0C" transform="translate(294,350)"/>
<path d="M0 0 C3.8063457 0.67170806 7.35206816 1.72746564 11 3 C11 4.65 11 6.3 11 8 C9.16399255 6.85845641 7.33125195 5.71165684 5.5 4.5625 C4.4790625 3.92441406 3.458125 3.28632813 2.40625 2.62890625 C1.6121875 2.09136719 0.818125 1.55382812 0 1 C0 0.67 0 0.34 0 0 Z " fill="#B7DA7B" transform="translate(150,164)"/>
<path d="M0 0 C2.64 1.65 5.28 3.3 8 5 C7.34 5.66 6.68 6.32 6 7 C1.44444444 6.44444444 1.44444444 6.44444444 0 5 C-0.04063832 3.33382885 -0.042721 1.66611905 0 0 Z " fill="#4B810D" transform="translate(186,144)"/>
<path d="M0 0 C3.3 0.66 6.6 1.32 10 2 C9.67 2.99 9.34 3.98 9 5 C5.7 4.34 2.4 3.68 -1 3 C-0.67 2.01 -0.34 1.02 0 0 Z " fill="#477C0A" transform="translate(146,128)"/>
<path d="M0 0 C0 0.66 0 1.32 0 2 C-4.62 2 -9.24 2 -14 2 C-8.95585048 -1.36276635 -5.96798004 -1.03291962 0 0 Z " fill="#5E8D1C" transform="translate(363,100)"/>
<path d="M0 0 C2 1 2 1 2.6875 2.9375 C3.1388074 7.36031249 2.55490693 11.60342968 2 16 C1.67 16 1.34 16 1 16 C-0.12862175 10.63904667 -0.09688221 5.44693314 0 0 Z " fill="#D8EA9A" transform="translate(1,270)"/>
<path d="M0 0 C0.33 0.66 0.66 1.32 1 2 C0.00390625 4.1640625 0.00390625 4.1640625 -1.4375 6.625 C-1.91058594 7.44226563 -2.38367188 8.25953125 -2.87109375 9.1015625 C-3.24363281 9.72804687 -3.61617188 10.35453125 -4 11 C-4.33 11 -4.66 11 -5 11 C-5.125 5.25 -5.125 5.25 -4 3 C-3.34 3 -2.68 3 -2 3 C-2 2.34 -2 1.68 -2 1 C-1.34 0.67 -0.68 0.34 0 0 Z " fill="#447C0B" transform="translate(277,200)"/>
<path d="M0 0 C0.66 0 1.32 0 2 0 C3.28571429 7.42857143 3.28571429 7.42857143 2 11 C1.34 10.67 0.68 10.34 0 10 C-0.89093449 6.35526801 -1.23666047 3.57257469 0 0 Z " fill="#D0E88C" transform="translate(11,175)"/>
<path d="M0 0 C0.66 1.32 1.32 2.64 2 4 C0.68 4.33 -0.64 4.66 -2 5 C-2 5.99 -2 6.98 -2 8 C-2.99 8.33 -3.98 8.66 -5 9 C-5.66 8.34 -6.32 7.68 -7 7 C-4.78071806 4.09197539 -3.07030857 2.04687238 0 0 Z " fill="#437B0A" transform="translate(236,360)"/>
<path d="M0 0 C0.99 0.33 1.98 0.66 3 1 C3 2.32 3 3.64 3 5 C1.02 5.66 -0.96 6.32 -3 7 C-2.38722388 4.03824877 -1.74627478 2.61941217 0 0 Z " fill="#B5CB7D" transform="translate(68,76)"/>
<path d="M0 0 C0.66 0.33 1.32 0.66 2 1 C-0.5232744 4.78491159 -2.86442201 5.367535 -7 7 C-7.66 6.34 -8.32 5.68 -9 5 C-7.54735962 4.1361871 -6.0876837 3.28419546 -4.625 2.4375 C-3.40683594 1.72400391 -3.40683594 1.72400391 -2.1640625 0.99609375 C-1.44992188 0.66738281 -0.73578125 0.33867187 0 0 Z " fill="#94A366" transform="translate(147,20)"/>
<path d="M0 0 C3 0.75 3 0.75 6 2.75 C1.48281619 4.11884358 -1.58774263 3.22075246 -6 1.75 C-3 -0.25 -3 -0.25 0 0 Z " fill="#9AB26D" transform="translate(180,488.25)"/>
<path d="M0 0 C3.625 0.375 3.625 0.375 7 1 C7.33 2.32 7.66 3.64 8 5 C4.44219804 4.39009109 1.3171411 3.4216319 -2 2 C-1.34 1.34 -0.68 0.68 0 0 Z " fill="#A1B170" transform="translate(143,475)"/>
<path d="M0 0 C-0.25 1.875 -0.25 1.875 -1 4 C-2.9375 5.3125 -2.9375 5.3125 -5 6 C-5.66 5.67 -6.32 5.34 -7 5 C-5.64703851 0.94111554 -4.27479763 0 0 0 Z " fill="#467F0A" transform="translate(264,434)"/>
<path d="M0 0 C0.66 0.33 1.32 0.66 2 1 C2.6328125 3.06640625 2.6328125 3.06640625 3.125 5.5625 C3.29257812 6.38878906 3.46015625 7.21507812 3.6328125 8.06640625 C3.75398438 8.70449219 3.87515625 9.34257812 4 10 C3.34 10 2.68 10 2 10 C0.68 7.03 -0.64 4.06 -2 1 C-1.34 0.67 -0.68 0.34 0 0 Z " fill="#78834E" transform="translate(30,367)"/>
<path d="M0 0 C0.66 1.32 1.32 2.64 2 4 C-0.8125 5.125 -0.8125 5.125 -4 6 C-4.99 5.34 -5.98 4.68 -7 4 C-4.35261084 2.5393715 -3.10551666 2 0 2 C0 1.34 0 0.68 0 0 Z " fill="#4B820E" transform="translate(237,327)"/>
<path d="M0 0 C3.3 0 6.6 0 10 0 C10 0.66 10 1.32 10 2 C2.25 3.125 2.25 3.125 0 2 C0 1.34 0 0.68 0 0 Z " fill="#4B7D0F" transform="translate(286,236)"/>
<path d="M0 0 C0.33 0 0.66 0 1 0 C1.33 4.29 1.66 8.58 2 13 C1.01 13.33 0.02 13.66 -1 14 C-1.08333357 9.1666528 -0.95261487 4.76307437 0 0 Z " fill="#D8E99B" transform="translate(2,214)"/>
<path d="M0 0 C0.66 0.66 1.32 1.32 2 2 C0.68 4.97 -0.64 7.94 -2 11 C-2.33 11 -2.66 11 -3 11 C-3.36923077 4.6 -3.36923077 4.6 -1.5 1.5625 C-1.005 1.046875 -0.51 0.53125 0 0 Z " fill="#4E8211" transform="translate(381,164)"/>
<path d="M0 0 C0.66 0.66 1.32 1.32 2 2 C2.66 2.33 3.32 2.66 4 3 C2.68 3.33 1.36 3.66 0 4 C-0.33 5.32 -0.66 6.64 -1 8 C-2.32 8.33 -3.64 8.66 -5 9 C-4.34 7.35 -3.68 5.7 -3 4 C-2.34 4 -1.68 4 -1 4 C-0.67 2.68 -0.34 1.36 0 0 Z " fill="#8F9E5D" transform="translate(42,108)"/>
<path d="M0 0 C-1.57725347 0.70133599 -3.16211333 1.385583 -4.75 2.0625 C-5.63171875 2.44535156 -6.5134375 2.82820313 -7.421875 3.22265625 C-10.15256309 4.04600008 -11.36901347 3.9773992 -14 3 C-13.01 3 -12.02 3 -11 3 C-11 2.01 -11 1.02 -11 0 C-3.375 -1.125 -3.375 -1.125 0 0 Z " fill="#86955C" transform="translate(340,485)"/>
<path d="M0 0 C0.33 0.66 0.66 1.32 1 2 C2.32 1.67 3.64 1.34 5 1 C5 1.99 5 2.98 5 4 C4.01 4 3.02 4 2 4 C2.99 4.99 3.98 5.98 5 7 C4.67 7.66 4.34 8.32 4 9 C2.35 7.68 0.7 6.36 -1 5 C-0.67 3.35 -0.34 1.7 0 0 Z " fill="#A5B967" transform="translate(107,451)"/>
<path d="M0 0 C0.33 0.66 0.66 1.32 1 2 C1.66 2 2.32 2 3 2 C1.7508258 5.45925163 0.32472205 8.14693203 -2 11 C-1.125 3.375 -1.125 3.375 0 0 Z " fill="#B4DA76" transform="translate(208,386)"/>
<path d="M0 0 C1.98 0.99 1.98 0.99 4 2 C4.33 1.34 4.66 0.68 5 0 C5.36923077 5.53846154 5.36923077 5.53846154 3.5 7.875 C2.7575 8.431875 2.7575 8.431875 2 9 C1.4375 7.0625 1.4375 7.0625 1 5 C1.33 4.67 1.66 4.34 2 4 C1.34 2.68 0.68 1.36 0 0 Z " fill="#D0E68E" transform="translate(472,351)"/>
<path d="M0 0 C1.98 0.99 3.96 1.98 6 3 C5.67 4.65 5.34 6.3 5 8 C3.0625 7.375 3.0625 7.375 1 6 C0.25 2.875 0.25 2.875 0 0 Z " fill="#A8BB71" transform="translate(368,28)"/>
<path d="M0 0 C-0.33 1.32 -0.66 2.64 -1 4 C-4.3 4 -7.6 4 -11 4 C-3 0 -3 0 0 0 Z " fill="#8EA05E" transform="translate(162,15)"/>
<path d="M0 0 C4.455 0.99 4.455 0.99 9 2 C9 2.33 9 2.66 9 3 C3.06 3.495 3.06 3.495 -3 4 C-2.67 3.34 -2.34 2.68 -2 2 C-1.34 2 -0.68 2 0 2 C0 1.34 0 0.68 0 0 Z " fill="#A4B670" transform="translate(316,8)"/>
<path d="M0 0 C0.12375 0.5775 0.2475 1.155 0.375 1.75 C1.00648824 4.02335767 1.88858191 5.9253529 3 8 C1.68 8 0.36 8 -1 8 C-1.66 6.35 -2.32 4.7 -3 3 C-2.01 2.01 -1.02 1.02 0 0 Z " fill="#C2E07D" transform="translate(300,347)"/>
<path d="M0 0 C0.66 0.33 1.32 0.66 2 1 C2.625 3.0625 2.625 3.0625 3 5 C2.01 5.66 1.02 6.32 0 7 C0 6.34 0 5.68 0 5 C-0.99 5.33 -1.98 5.66 -3 6 C-1.125 1.125 -1.125 1.125 0 0 Z " fill="#B3C777" transform="translate(37,117)"/>
<path d="M0 0 C1.65 0 3.3 0 5 0 C4.67 0.99 4.34 1.98 4 3 C2.68 3 1.36 3 0 3 C0 3.66 0 4.32 0 5 C-1.65 5 -3.3 5 -5 5 C-3.68 4.67 -2.36 4.34 -1 4 C-0.67 2.68 -0.34 1.36 0 0 Z " fill="#BBCD83" transform="translate(298,492)"/>
<path d="M0 0 C2.475 0.495 2.475 0.495 5 1 C5.12375 1.804375 5.2475 2.60875 5.375 3.4375 C5.684375 4.7059375 5.684375 4.7059375 6 6 C6.66 6.33 7.32 6.66 8 7 C7.01 7 6.02 7 5 7 C0 1.53488372 0 1.53488372 0 0 Z " fill="#A7B678" transform="translate(58,411)"/>
<path d="M0 0 C0 3 0 3 -1 6 C-0.34 6 0.32 6 1 6 C0.67 6.66 0.34 7.32 0 8 C-0.99 7.67 -1.98 7.34 -3 7 C-3.99 7.495 -3.99 7.495 -5 8 C-4.45773019 4.20411134 -2.79872437 2.52788007 0 0 Z " fill="#CCE98C" transform="translate(228,357)"/>
<path d="M0 0 C0.33 0.66 0.66 1.32 1 2 C0.0625 4.625 0.0625 4.625 -1 7 C-3.31 7.33 -5.62 7.66 -8 8 C-5.33333333 5.33333333 -2.66666667 2.66666667 0 0 Z " fill="#98A768" transform="translate(83,62)"/>
<path d="M0 0 C0.66 0 1.32 0 2 0 C2 0.66 2 1.32 2 2 C3.2065625 2.433125 3.2065625 2.433125 4.4375 2.875 C7 4 7 4 8 6 C5.23723823 5.47731534 2.6739124 4.89130413 0 4 C0 2.68 0 1.36 0 0 Z " fill="#A1B16F" transform="translate(401,50)"/>
<path d="M0 0 C-0.66 3.3 -1.32 6.6 -2 10 C-4.29013653 6.5647952 -4.17842973 5.014669 -4 1 C-2 0 -2 0 0 0 Z " fill="#D1E892" transform="translate(15,319)"/>
<path d="M0 0 C0.66 0 1.32 0 2 0 C2.625 1.8125 2.625 1.8125 3 4 C2.01 5.485 2.01 5.485 1 7 C0.01 7 -0.98 7 -2 7 C-1.34 4.69 -0.68 2.38 0 0 Z " fill="#BADD76" transform="translate(267,221)"/>
<path d="M0 0 C0.33 0.66 0.66 1.32 1 2 C1.66 2 2.32 2 3 2 C2.25 6.75 2.25 6.75 0 9 C-1.10844919 5.67465243 -0.84454356 3.37817425 0 0 Z " fill="#4A800C" transform="translate(247,208)"/>
<path d="M0 0 C0.66 0.99 1.32 1.98 2 3 C0.35 4.65 -1.3 6.3 -3 8 C-3.33 7.34 -3.66 6.68 -4 6 C-2.68 4.02 -1.36 2.04 0 0 Z " fill="#457909" transform="translate(269,159)"/>
<path d="M0 0 C1.46067199 0.45082469 2.91848032 0.91093537 4.375 1.375 C5.18710937 1.63023438 5.99921875 1.88546875 6.8359375 2.1484375 C9 3 9 3 11 5 C10.01 5.33 9.02 5.66 8 6 C8 5.34 8 4.68 8 4 C7.236875 4.04125 6.47375 4.0825 5.6875 4.125 C3 4 3 4 0 2 C0 1.34 0 0.68 0 0 Z " fill="#818E56" transform="translate(348,19)"/>
<path d="M0 0 C2.97 0.33 5.94 0.66 9 1 C8.01 1.33 7.02 1.66 6 2 C6 2.66 6 3.32 6 4 C3.03 3.505 3.03 3.505 0 3 C0 2.01 0 1.02 0 0 Z " fill="#A4B56E" transform="translate(293,3)"/>
<path d="M0 0 C1.670625 0.061875 1.670625 0.061875 3.375 0.125 C0.98926621 2.01713369 -0.69675348 3.14891783 -3.625 4.125 C-4.285 3.465 -4.945 2.805 -5.625 2.125 C-3.625 0.125 -3.625 0.125 0 0 Z " fill="#497F0E" transform="translate(254.625,439.875)"/>
<path d="M0 0 C2.91517292 1.07401108 4.77810176 1.77810176 7 4 C3.37673261 5.2077558 2.35853631 4.54311128 -1 3 C-0.67 2.01 -0.34 1.02 0 0 Z " fill="#4B8010" transform="translate(170,231)"/>
<path d="M0 0 C0.66 0 1.32 0 2 0 C0.55922954 3.36179774 -1.24750021 5.59156268 -4 8 C-4.66 8 -5.32 8 -6 8 C-6 7.01 -6 6.02 -6 5 C-4.36368108 3.95107762 -2.69514137 2.95093297 -1 2 C-0.67 1.34 -0.34 0.68 0 0 Z " fill="#44770B" transform="translate(358,199)"/>
<path d="M0 0 C2.88575819 0.39803561 3.82189513 0.79009069 5.75 3.0625 C6.1625 3.701875 6.575 4.34125 7 5 C3.89448334 5 2.64738916 4.4606285 0 3 C0 2.01 0 1.02 0 0 Z " fill="#48800D" transform="translate(196,153)"/>
<path d="M0 0 C1.04449911 3.13349732 0.93423645 3.98968256 0 7 C-1.65 7.33 -3.3 7.66 -5 8 C-4.67 7.01 -4.34 6.02 -4 5 C-3.34 5 -2.68 5 -2 5 C-1.34 3.35 -0.68 1.7 0 0 Z " fill="#D0E88E" transform="translate(47,103)"/>
<path d="M0 0 C0.99 0.33 1.98 0.66 3 1 C3 1.66 3 2.32 3 3 C4.32 3.33 5.64 3.66 7 4 C6.67 4.66 6.34 5.32 6 6 C5.236875 5.690625 4.47375 5.38125 3.6875 5.0625 C1.81210323 4.32106407 -0.08684652 3.63771783 -2 3 C-1.34 2.01 -0.68 1.02 0 0 Z " fill="#8E9D60" transform="translate(391,42)"/>
<path d="M0 0 C2.75 0.25 2.75 0.25 5 1 C4.34 1.66 3.68 2.32 3 3 C1.68 3 0.36 3 -1 3 C-1 3.66 -1 4.32 -1 5 C-1.99 4.67 -2.98 4.34 -4 4 C-2.3125 1.9375 -2.3125 1.9375 0 0 Z " fill="#D5E997" transform="translate(349,476)"/>
<path d="M0 0 C2.79872437 2.52788007 4.45773019 4.20411134 5 8 C4.01 8.495 4.01 8.495 3 9 C0.70620251 5.55930376 0 4.27709699 0 0 Z " fill="#BFE47C" transform="translate(219,173)"/>
<path d="M0 0 C3.465 1.485 3.465 1.485 7 3 C5.68 3.99 4.36 4.98 3 6 C3 5.34 3 4.68 3 4 C2.01 3.67 1.02 3.34 0 3 C0 2.01 0 1.02 0 0 Z " fill="#C1DF7F" transform="translate(162,168)"/>
<path d="M0 0 C2.31 1.98 4.62 3.96 7 6 C6.01 6.33 5.02 6.66 4 7 C1.23609263 4.59660228 0.95934081 3.83736322 0 0 Z " fill="#A2B170" transform="translate(433,79)"/>
<path d="M0 0 C1.65 0.33 3.3 0.66 5 1 C4.67 1.99 4.34 2.98 4 4 C1.03 3.505 1.03 3.505 -2 3 C-1.34 2.01 -0.68 1.02 0 0 Z " fill="#A8B971" transform="translate(159,481)"/>
<path d="M0 0 C0.99 0 1.98 0 3 0 C3 0.99 3 1.98 3 3 C1.02 3.99 -0.96 4.98 -3 6 C-3 5.01 -3 4.02 -3 3 C-2.01 3 -1.02 3 0 3 C0 2.01 0 1.02 0 0 Z " fill="#99A76C" transform="translate(388,456)"/>
<path d="M0 0 C0.66 0 1.32 0 2 0 C2.33 2.97 2.66 5.94 3 9 C-0.06000643 5.93999357 -0.56942344 5.09047728 -1 1 C-0.67 0.67 -0.34 0.34 0 0 Z " fill="#3D7706" transform="translate(182,421)"/>
<path d="M0 0 C3.91402949 1.26941497 5.79072873 2.51167694 8 6 C6.02 5.34 4.04 4.68 2 4 C2 3.34 2 2.68 2 2 C1.34 2 0.68 2 0 2 C0 1.34 0 0.68 0 0 Z " fill="#4A7B0B" transform="translate(280,334)"/>
<path d="M0 0 C0.66 0.66 1.32 1.32 2 2 C1.67 2.66 1.34 3.32 1 4 C-1.31 4 -3.62 4 -6 4 C-4.03617993 2.49440461 -2.21736634 1.10868317 0 0 Z " fill="#487C0A" transform="translate(228,332)"/>
<path d="M0 0 C0.99 0.33 1.98 0.66 3 1 C2.67 3.64 2.34 6.28 2 9 C0 7 0 7 -0.125 3.375 C-0.08375 2.26125 -0.0425 1.1475 0 0 Z " fill="#CCEF8C" transform="translate(241,217)"/>
<path d="M0 0 C0.625 1.8125 0.625 1.8125 1 4 C0.01 5.485 0.01 5.485 -1 7 C-1.66 7 -2.32 7 -3 7 C-2.25 2.25 -2.25 2.25 0 0 Z " fill="#447B07" transform="translate(274,152)"/>
<path d="M0 0 C-0.33 0.66 -0.66 1.32 -1 2 C-3.3140622 2.73075648 -5.64828869 3.40138258 -8 4 C-8.33 3.01 -8.66 2.02 -9 1 C-5.8035914 -0.06546953 -3.34252724 -0.07427838 0 0 Z " fill="#508712" transform="translate(334,109)"/>
<path d="M0 0 C3.26460973 1.80412643 4.88929795 2.83394693 7 6 C4.625 5.8125 4.625 5.8125 2 5 C0.6875 2.4375 0.6875 2.4375 0 0 Z " fill="#A5B275" transform="translate(411,58)"/>
</svg>
